<?xml version="1.0" standalone="no"?>
<!DOCTYPE svg PUBLIC "-//W3C//DTD SVG 20010904//EN"
 "http://www.w3.org/TR/2001/REC-SVG-20010904/DTD/svg10.dtd">
<svg version="1.0" xmlns="http://www.w3.org/2000/svg"
 width="1024.000000pt" height="1024.000000pt" viewBox="0 0 1024.000000 1024.000000"
 preserveAspectRatio="xMidYMid meet">
<metadata>
Created by potrace 1.14, written by Peter Selinger 2001-2017
</metadata>
<g transform="translate(0.000000,1024.000000) scale(0.100000,-0.100000)"
fill="#000000" stroke="none">
<path d="M140 9414 c-41 -18 -105 -77 -126 -116 -11 -21 -14 -72 -14 -215 0
-176 2 -191 23 -228 27 -47 94 -100 145 -115 22 -6 179 -10 395 -10 l357 0 0
-700 0 -700 -377 0 -378 0 -50 -28 c-32 -17 -61 -44 -83 -76 l-32 -48 0 -2055
c0 -1753 2 -2058 14 -2081 8 -15 32 -44 53 -64 70 -68 70 -68 483 -68 l370 0
0 -700 0 -700 -361 0 c-248 0 -374 -4 -401 -12 -48 -14 -120 -76 -142 -122
-13 -27 -16 -69 -16 -215 0 -161 2 -186 20 -220 25 -50 89 -105 139 -119 29
-9 1254 -12 4962 -12 l4924 0 51 24 c59 27 116 90 132 145 16 51 15 312 0 365
-16 55 -101 140 -154 155 -25 7 -172 11 -401 11 l-363 0 0 700 0 700 373 0
c339 0 376 2 412 19 52 24 121 99 134 147 8 27 11 482 11 1462 l0 1423 -2237
-3 c-2082 -3 -2246 -5 -2358 -21 -334 -50 -548 -127 -780 -281 -304 -203 -523
-468 -570 -691 -52 -245 39 -446 245 -547 144 -69 252 -86 569 -89 l203 -2
218 379 218 379 -193 5 -194 5 116 203 116 202 648 0 c357 0 649 -3 649 -7 0
-5 -205 -370 -455 -813 l-454 -805 -876 -3 c-996 -2 -896 -10 -1101 88 -194
94 -378 237 -486 380 -185 244 -236 563 -136 850 113 323 399 597 828 791 410
185 820 287 1380 344 449 45 461 45 2608 45 l2042 0 0 389 0 389 -28 53 c-18
35 -44 65 -77 89 l-49 35 -388 3 -388 3 0 699 0 699 378 3 c364 3 378 4 417
25 52 28 89 68 114 123 18 39 21 66 21 200 0 142 -2 159 -24 206 -27 59 -90
116 -145 132 -29 9 -1255 12 -4967 12 -4376 -1 -4933 -2 -4964 -16z m3411
-696 c51 -15 114 -69 142 -122 22 -41 22 -46 25 -545 3 -574 4 -570 -73 -647
-76 -76 -53 -74 -860 -74 -811 0 -784 -2 -861 77 -75 77 -75 77 -72 649 3 490
3 500 25 539 12 22 36 54 55 72 68 65 29 62 842 63 533 0 749 -3 777 -12z
m2330 0 c51 -15 114 -69 142 -122 22 -41 22 -47 25 -540 3 -573 3 -576 -73
-651 -77 -77 -52 -75 -860 -75 -808 0 -783 -2 -860 75 -76 75 -76 78 -73 651
3 489 3 500 24 539 29 54 70 94 119 116 38 17 84 19 779 19 532 0 750 -3 777
-12z m2330 0 c51 -15 114 -69 142 -122 22 -41 22 -47 25 -539 3 -576 3 -577
-74 -653 -79 -76 -53 -74 -859 -74 -771 0 -769 0 -840 54 -19 15 -47 48 -62
74 l-28 47 0 525 c0 495 1 527 19 563 25 51 71 96 121 118 38 17 85 19 779 19
532 0 750 -3 777 -12z m-4667 -5822 c62 -19 109 -56 143 -114 l28 -47 0 -525
c0 -521 0 -525 -22 -566 -25 -48 -83 -101 -129 -120 -45 -19 -1484 -21 -1545
-2 -51 15 -114 69 -142 122 -22 41 -22 43 -22 561 l0 521 25 48 c29 56 80 101
136 121 58 21 1459 21 1528 1z m2335 -2 c37 -10 66 -29 96 -59 76 -75 76 -78
73 -651 -3 -493 -3 -499 -25 -540 -28 -52 -95 -111 -142 -124 -54 -15 -1482
-13 -1532 2 -51 15 -114 69 -142 122 -22 41 -22 43 -22 561 l0 521 25 48 c29
56 80 101 136 121 32 12 173 14 760 15 626 0 727 -2 773 -16z m2330 0 c38 -11
66 -28 97 -61 75 -77 75 -77 72 -649 -3 -493 -3 -499 -25 -540 -28 -52 -95
-111 -142 -124 -22 -6 -318 -10 -774 -10 -603 0 -744 3 -771 14 -46 19 -104
72 -129 120 -22 41 -22 45 -22 566 0 493 1 527 19 560 35 66 87 110 156 131
14 4 349 8 746 8 627 1 727 -1 773 -15z"/>
</g>
</svg>
